HIERARCHY
ROOT joint_0
{
	OFFSET 0.000000 0.000000 0.000000
	CHANNELS 6 Xposition Yposition Zposition Zrotation Yrotation Xrotation 
	JOINT joint_1
	{
		OFFSET 13.542969 -4.074463 123.986084
		CHANNELS 3 Zrotation Yrotation Xrotation
		JOINT joint_2
		{
			OFFSET -0.108154 -3.018066 113.860962
			CHANNELS 3 Zrotation Yrotation Xrotation
			JOINT joint_3
			{
				OFFSET -1.139648 -3.876465 113.702026
				CHANNELS 3 Zrotation Yrotation Xrotation
				JOINT joint_4
				{
					OFFSET 13.593506 -8.582153 160.876953
					CHANNELS 3 Zrotation Yrotation Xrotation
					JOINT joint_5
					{
						OFFSET 26.480957 -11.565674 94.427979
						CHANNELS 3 Zrotation Yrotation Xrotation
						End Site
						{
							OFFSET 0.000000 0.000000 0.000000
						}
					}
				}
				JOINT joint_6
				{
					OFFSET 3.003662 -39.658691 88.713989
					CHANNELS 3 Zrotation Yrotation Xrotation
					JOINT joint_7
					{
						OFFSET -25.253906 -162.506348 -28.477051
						CHANNELS 3 Zrotation Yrotation Xrotation
						JOINT joint_8
						{
							OFFSET 23.083252 -8.502686 -295.281982
							CHANNELS 3 Zrotation Yrotation Xrotation
							JOINT joint_9
							{
								OFFSET 20.205566 -32.167908 -263.458008
								CHANNELS 3 Zrotation Yrotation Xrotation
								End Site
								{
									OFFSET 0.000000 0.000000 0.000000
								}
							}
						}
					}
				}
				JOINT joint_10
				{
					OFFSET 12.313232 30.012939 91.642944
					CHANNELS 3 Zrotation Yrotation Xrotation
					JOINT joint_11
					{
						OFFSET 31.960205 162.667969 -19.398926
						CHANNELS 3 Zrotation Yrotation Xrotation
						JOINT joint_12
						{
							OFFSET 51.325195 40.249023 -289.038086
							CHANNELS 3 Zrotation Yrotation Xrotation
							JOINT joint_13
							{
								OFFSET 70.170898 60.433594 -249.556030
								CHANNELS 3 Zrotation Yrotation Xrotation
								End Site
								{
									OFFSET 0.000000 0.000000 0.000000
								}
							}
						}
					}
				}
			}
		}
	}
	JOINT joint_14
	{
		OFFSET -15.093262 -91.803833 -113.326904
		CHANNELS 3 Zrotation Yrotation Xrotation
		JOINT joint_15
		{
			OFFSET 2.288818 -12.306763 -494.206055
			CHANNELS 3 Zrotation Yrotation Xrotation
			JOINT joint_16
			{
				OFFSET -54.691650 0.383423 -424.447006
				CHANNELS 3 Zrotation Yrotation Xrotation
				JOINT joint_17
				{
					OFFSET 202.154297 -21.791382 -80.181999
					CHANNELS 3 Zrotation Yrotation Xrotation
					End Site
					{
						OFFSET 0.000000 0.000000 0.000000
					}
				}
			}
		}
	}
	JOINT joint_18
	{
		OFFSET 10.704102 91.957275 -113.713013
		CHANNELS 3 Zrotation Yrotation Xrotation
		JOINT joint_19
		{
			OFFSET 0.427490 1.374878 -494.359924
			CHANNELS 3 Zrotation Yrotation Xrotation
			JOINT joint_20
			{
				OFFSET -53.071777 2.769531 -424.643028
				CHANNELS 3 Zrotation Yrotation Xrotation
				JOINT joint_21
				{
					OFFSET 200.264648 -28.253052 -82.862999
					CHANNELS 3 Zrotation Yrotation Xrotation
					End Site
					{
						OFFSET 0.000000 0.000000 0.000000
					}
				}
			}
		}
	}
}
MOTION
Frames: 9
Frame Time: 0.016667
-3364.556396 1322.646606 1146.729004 4.890667 -1.648318 -0.194143 -0.235194 -1.620116 0.389834 -0.182323 0.217641 -0.126043 -0.198394 -0.325460 0.049888 0.186978 0.992004 -0.209734 0.000000 0.000000 0.000000 4.992670 -0.626739 1.918349 0.317364 0.093588 2.644806 0.171697 -1.178987 0.272117 0.000000 0.000000 0.000000 -2.454485 0.478095 0.898068 0.077023 1.304337 -1.768507 0.514236 1.363635 0.649693 0.000000 0.000000 0.000000 -1.312607 2.673618 2.350116 -1.120394 -5.422716 -0.687335 -1.147367 1.378465 -0.304305 0.000000 0.000000 0.000000 1.576294 0.285147 2.001792 1.566810 -3.699709 -0.954237 1.392768 3.904785 1.125057 0.000000 0.000000 0.000000 
-3364.584961 1322.334839 1146.687012 4.874310 -1.673776 -0.181564 -0.236668 -1.664799 0.375834 -0.182402 0.222725 -0.123490 -0.199040 -0.335880 0.046361 0.194167 1.019923 -0.222027 0.000000 0.000000 0.000000 5.083100 -0.640694 1.983813 0.313736 0.105675 2.650612 0.158347 -1.131759 0.169565 0.000000 0.000000 0.000000 -2.417342 0.483809 0.934203 0.071484 1.317730 -1.797334 0.507964 1.358389 0.631708 0.000000 0.000000 0.000000 -1.294697 2.646814 2.361225 -1.105667 -5.326257 -0.703240 -1.135853 1.378538 -0.299765 0.000000 0.000000 0.000000 1.605262 0.337989 2.008602 1.595419 -3.779785 -0.958031 1.420204 4.041263 1.155644 0.000000 0.000000 0.000000 
-3364.620361 1321.954102 1146.641968 4.857965 -1.697511 -0.162074 -0.241630 -1.716709 0.355326 -0.185720 0.231712 -0.121439 -0.203226 -0.351473 0.042532 0.202237 1.042167 -0.240063 0.000000 0.000000 0.000000 5.161424 -0.664812 2.046813 0.308821 0.099418 2.694548 0.136307 -1.041418 0.024583 0.000000 0.000000 0.000000 -2.370503 0.495826 0.972893 0.067840 1.334743 -1.814669 0.499917 1.351380 0.608938 0.000000 0.000000 0.000000 -1.272586 2.593441 2.367401 -1.088552 -5.182754 -0.715428 -1.121778 1.370580 -0.295092 0.000000 0.000000 0.000000 1.647468 0.383293 2.010616 1.637291 -3.859437 -0.961531 1.460007 4.219664 1.197261 0.000000 0.000000 0.000000 
-3364.641602 1321.524536 1146.593018 4.846050 -1.718993 -0.138228 -0.248348 -1.773655 0.330033 -0.190556 0.245130 -0.118518 -0.209233 -0.371451 0.037937 0.209799 1.059138 -0.258636 0.000000 0.000000 0.000000 5.239223 -0.698784 2.110149 0.301595 0.079558 2.765029 0.106022 -0.909047 -0.156394 0.000000 0.000000 0.000000 -2.318813 0.510550 1.017097 0.064713 1.354540 -1.829509 0.491000 1.343675 0.583655 0.000000 0.000000 0.000000 -1.248924 2.524721 2.371493 -1.070932 -5.012593 -0.726714 -1.107218 1.360024 -0.290512 0.000000 0.000000 0.000000 1.696146 0.424149 2.009712 1.685654 -3.940872 -0.964253 1.505988 4.423999 1.245097 0.000000 0.000000 0.000000 
-3364.598389 1321.086670 1146.537964 4.852213 -1.732834 -0.116064 -0.251598 -1.823583 0.308030 -0.192162 0.256374 -0.117387 -0.211801 -0.388554 0.035427 0.212934 1.065239 -0.266188 0.000000 0.000000 0.000000 5.333039 -0.750659 2.171988 0.287569 0.042694 2.853598 0.062610 -0.699288 -0.375144 0.000000 0.000000 0.000000 -2.280138 0.517009 1.074718 0.059029 1.374094 -1.865395 0.485330 1.340575 0.565875 0.000000 0.000000 0.000000 -1.231338 2.460138 2.378005 -1.058872 -4.857968 -0.738708 -1.097977 1.354597 -0.287474 0.000000 0.000000 0.000000 1.736379 0.453875 2.010721 1.725678 -4.012228 -0.965589 1.544115 4.618693 1.288341 0.000000 0.000000 0.000000 
-3364.530762 1320.652344 1146.473999 4.871523 -1.743493 -0.097877 -0.253836 -1.856058 0.299324 -0.193339 0.265401 -0.121459 -0.213540 -0.399104 0.037956 0.211158 1.058507 -0.261965 0.000000 0.000000 0.000000 5.447135 -0.820625 2.229064 0.266743 -0.011885 2.965044 0.006005 -0.414569 -0.630224 0.000000 0.000000 0.000000 -2.261430 0.513454 1.148052 0.050892 1.394413 -1.929807 0.486187 1.349886 0.560508 0.000000 0.000000 0.000000 -1.219699 2.404154 2.385996 -1.052005 -4.723478 -0.748749 -1.093439 1.359382 -0.285187 0.000000 0.000000 0.000000 1.764857 0.471794 2.013122 1.754071 -4.062787 -0.959590 1.571769 4.788414 1.323738 0.000000 0.000000 0.000000 
-3364.397949 1320.210815 1146.401978 4.909026 -1.746357 -0.081667 -0.252927 -1.882453 0.295024 -0.191559 0.272884 -0.127780 -0.212120 -0.406437 0.042018 0.204870 1.040344 -0.246717 0.000000 0.000000 0.000000 5.578226 -0.909355 2.285200 0.237553 -0.083578 3.092987 -0.064798 -0.051588 -0.920959 0.000000 0.000000 0.000000 -2.254595 0.501322 1.235594 0.040071 1.414329 -2.016035 0.490391 1.363782 0.562994 0.000000 0.000000 0.000000 -1.213913 2.352164 2.396615 -1.050470 -4.604525 -0.759678 -1.094024 1.368999 -0.284400 0.000000 0.000000 0.000000 1.784752 0.478551 2.017521 1.773973 -4.103628 -0.951834 1.591451 4.947887 1.354404 0.000000 0.000000 0.000000 
-3364.033447 1319.766479 1146.322998 4.996451 -1.723283 -0.066027 -0.239882 -1.924490 0.270219 -0.176963 0.280008 -0.125552 -0.198089 -0.416912 0.041309 0.191204 1.004392 -0.212867 0.000000 0.000000 0.000000 5.741514 -1.026466 2.346011 0.192377 -0.173411 3.212896 -0.156639 0.432828 -1.248585 0.000000 0.000000 0.000000 -2.249629 0.474200 1.341493 0.022422 1.427443 -2.128591 0.491937 1.364475 0.567251 0.000000 0.000000 0.000000 -1.222330 2.310948 2.417105 -1.061705 -4.529815 -0.783119 -1.107937 1.377681 -0.288969 0.000000 0.000000 0.000000 1.789181 0.469208 2.028654 1.778505 -4.153725 -0.956311 1.595495 5.104068 1.378187 0.000000 0.000000 0.000000 
-3363.432617 1319.253418 1146.225952 5.127776 -1.679940 -0.050997 -0.212310 -1.983448 0.219271 -0.147091 0.284712 -0.112823 -0.168936 -0.429740 0.032776 0.171637 0.961473 -0.160582 0.000000 0.000000 0.000000 5.957936 -1.178558 2.416464 0.126175 -0.285275 3.341167 -0.278108 1.071690 -1.637499 0.000000 0.000000 0.000000 -2.254263 0.427631 1.468480 -0.000242 1.430891 -2.267117 0.496402 1.357600 0.588226 0.000000 0.000000 0.000000 -1.242437 2.304160 2.457684 -1.081778 -4.533853 -0.829564 -1.132465 1.384366 -0.297924 0.000000 0.000000 0.000000 1.780732 0.454769 2.053520 1.770222 -4.222474 -0.978138 1.585951 5.261382 1.396553 0.000000 0.000000 0.000000 
